<?xml version="1.0" standalone="no"?>
<!DOCTYPE svg PUBLIC "-//W3C//DTD SVG 20010904//EN"
 "http://www.w3.org/TR/2001/REC-SVG-20010904/DTD/svg10.dtd">
<svg version="1.0" xmlns="http://www.w3.org/2000/svg"
 width="1024.000000pt" height="370.000000pt" viewBox="0 0 1024.000000 370.000000"
 preserveAspectRatio="xMidYMid meet">

<g transform="translate(0.000000,370.000000) scale(0.100000,-0.100000)"
fill="#000000" stroke="none">
<path d="M0 1850 l0 -1850 5120 0 5120 0 0 1850 0 1850 -5120 0 -5120 0 0
-1850z m3068 1330 c116 -33 234 -101 301 -174 24 -25 24 -28 18 -153 -5 -107
-28 -258 -42 -272 -2 -2 -26 13 -54 33 -60 44 -155 88 -242 112 -80 22 -305
25 -394 5 -253 -56 -476 -176 -667 -360 -132 -126 -216 -240 -289 -388 -45
-92 -65 -123 -79 -123 -27 0 -34 48 -27 189 11 256 131 509 344 732 229 238
492 379 788 423 72 11 271 -3 343 -24z m325 -661 c51 -59 105 -167 127 -255
27 -106 27 -272 0 -380 -62 -243 -263 -561 -504 -799 -149 -147 -383 -318
-520 -381 -91 -41 -302 -62 -463 -45 -288 30 -507 131 -716 331 l-89 85 180
-3 c205 -5 319 9 491 59 613 179 1139 649 1378 1234 23 55 47 121 53 148 7 26
16 47 20 47 5 0 24 -18 43 -41z"/>
</g>
</svg>
